<svg xmlns="http://www.w3.org/2000/svg" viewBox="0 0 200 180" role="img" aria-label="BioMar">
  <rect x="4" y="6" width="192" height="168" rx="24" fill="#1b3c74"/>
  <!-- arco verde superior -->
  <path d="M62 80 C92 50 152 46 182 66 C176 60 168 56 159 54 C124 47 86 56 70 82 C66 84 63 83 62 80 Z" fill="#80bd27"/>
  <!-- wordmark BioMar -->
  <text x="100" y="106" text-anchor="middle" font-family="'Segoe UI', Tahoma, Geneva, Verdana, sans-serif" font-size="44" font-weight="800" font-style="italic" fill="#ffffff">BioMar</text>
  <!-- ola celeste inferior izquierda -->
  <path d="M48 120 C70 150 120 156 150 130 C140 150 120 162 96 162 C74 162 58 150 52 128 C50 122 49 120 48 120 Z" fill="#7ac4e8"/>
  <!-- ola celeste derecha -->
  <path d="M166 92 C190 108 192 144 170 162 C180 146 181 122 168 108 C162 101 160 96 166 92 Z" fill="#7ac4e8"/>
</svg>
